HIERARCHY
ROOT Hips
{
 OFFSET 0.000000 0.000000 0.000000
 CHANNELS 6 Xposition Yposition Zposition Yrotation Xrotation Zrotation
 JOINT Chest
 {
  OFFSET 0.000000 9.585900 0.002600
  CHANNELS 3 Yrotation Xrotation Zrotation
  JOINT Chest2
  {
   OFFSET 0.000000 9.601200 -0.005300
   CHANNELS 3 Yrotation Xrotation Zrotation
   JOINT Chest3
   {
    OFFSET 0.000000 9.561800 0.000000
    CHANNELS 3 Yrotation Xrotation Zrotation
    JOINT Chest4
    {
     OFFSET 0.000000 9.552100 0.000000
     CHANNELS 3 Yrotation Xrotation Zrotation
     JOINT Neck
     {
      OFFSET 0.000000 14.453000 0.000000
      CHANNELS 3 Yrotation Xrotation Zrotation
      JOINT Head
      {
       OFFSET 0.000000 8.936500 -0.011300
       CHANNELS 3 Yrotation Xrotation Zrotation
       End Site
       {
        OFFSET 0.000000 17.073600 -0.006000
       }
      }
     }
     JOINT RightCollar
     {
      OFFSET -2.921100 9.558500 0.000000
      CHANNELS 3 Yrotation Xrotation Zrotation
      JOINT RightShoulder
      {
       OFFSET -13.519700 0.000000 0.000000
       CHANNELS 3 Yrotation Xrotation Zrotation
       JOINT RightElbow
       {
        OFFSET 0.000000 -29.696600 0.000000
        CHANNELS 3 Yrotation Xrotation Zrotation
        JOINT RightWrist
        {
         OFFSET 0.000000 -24.004700 0.000000
         CHANNELS 3 Yrotation Xrotation Zrotation
         End Site
         {
          OFFSET 0.000000 -17.728500 0.000000
         }
        }
       }
      }
     }
     JOINT LeftCollar
     {
      OFFSET 2.921100 9.558500 0.000000
      CHANNELS 3 Yrotation Xrotation Zrotation
      JOINT LeftShoulder
      {
       OFFSET 13.519700 0.000000 0.000000
       CHANNELS 3 Yrotation Xrotation Zrotation
       JOINT LeftElbow
       {
        OFFSET 0.000000 -29.696600 0.000000
        CHANNELS 3 Yrotation Xrotation Zrotation
        JOINT LeftWrist
        {
         OFFSET 0.000000 -24.004700 0.000000
         CHANNELS 3 Yrotation Xrotation Zrotation
         End Site
         {
          OFFSET 0.000000 -17.728500 0.000000
         }
        }
       }
      }
     }
    }
   }
  }
 }
 JOINT RightHip
 {
  OFFSET -7.771700 -0.012900 -0.001300
  CHANNELS 3 Yrotation Xrotation Zrotation
  JOINT RightKnee
  {
   OFFSET 0.000000 -40.869800 0.001200
   CHANNELS 3 Yrotation Xrotation Zrotation
   JOINT RightAnkle
   {
    OFFSET 0.000000 -39.717900 0.002100
    CHANNELS 3 Yrotation Xrotation Zrotation
    JOINT RightToe
    {
     OFFSET 0.000000 -4.965400 11.033500
     CHANNELS 3 Yrotation Xrotation Zrotation
     End Site
     {
      OFFSET 0.000000 -1.423100 5.872300
     }
    }
   }
  }
 }
 JOINT LeftHip
 {
  OFFSET 7.771700 -0.012900 -0.001300
  CHANNELS 3 Yrotation Xrotation Zrotation
  JOINT LeftKnee
  {
   OFFSET 0.000000 -40.869800 0.001200
   CHANNELS 3 Yrotation Xrotation Zrotation
   JOINT LeftAnkle
   {
    OFFSET 0.000000 -39.717900 0.002100
    CHANNELS 3 Yrotation Xrotation Zrotation
    JOINT LeftToe
    {
     OFFSET 0.000000 -4.965400 11.033500
     CHANNELS 3 Yrotation Xrotation Zrotation
     End Site
     {
      OFFSET 0.000000 -1.423100 5.872300
     }
    }
   }
  }
 }
}
MOTION
Frames: 7
Frame Time: 0.008333
0.000000 85.388000 0.000000 0.000000 -5.767877 0.000000 0.000000 11.653817 0.000000 0.000000 -5.885947 0.000000 0.000000 -0.000000 0.000000 0.000000 -0.000000 0.000000 0.000000 12.528835 0.000000 0.000000 0.711642 0.000000 0.000000 -0.000000 0.000000 0.000000 0.000000 -90.000000 0.000000 -2.309062 0.000000 0.000000 2.309062 0.000000 0.000000 -0.000000 0.000000 0.000000 -0.000000 90.000000 0.000000 -2.309062 0.000000 0.000000 2.309062 0.000000 0.000000 8.520406 0.000000 0.000000 1.905762 0.000000 -0.000000 -4.658285 0.000000 0.000000 -0.000000 0.000000 0.000000 8.520406 0.000000 0.000000 1.905762 0.000000 -0.000000 -4.658285 0.000000 0.000000 -0.000000 0.000000
-8.709125 52.898039 15.617540 -179.770528 -14.699529 -2.341904 1.356729 13.904811 -0.132198 0.113228 1.178689 -0.032912 0.208156 2.009506 -0.019038 1.259097 12.554395 -0.093579 -0.390449 18.492431 4.626854 -1.450273 -6.092299 5.026148 0.263203 -1.383446 2.982613 2.867332 -5.099511 -6.269205 -116.011719 -75.837347 150.613971 -5.931184 -26.870604 -16.659545 -6.300475 -2.821343 1.911892 2.892508 -2.578992 10.838484 84.615901 -59.148770 -126.547985 1.036730 -7.401712 8.075765 1.922199 -63.552197 11.133845 169.405698 85.928111 168.127660 -10.946505 -22.847262 14.051041 0.021772 -0.159959 -0.192329 3.590565 -62.459286 -2.355342 122.320582 77.296996 121.048650 -5.451053 -20.213098 -2.034354 0.008855 0.048871 -0.005190
-8.711830 52.896886 15.604927 -179.766034 -14.686206 -2.345326 1.358857 13.903507 -0.116221 0.111708 1.171880 -0.032232 0.205825 2.002842 -0.024135 1.256010 12.549236 -0.093862 -0.378671 18.502801 4.622500 -1.440749 -6.077706 5.011708 0.289893 -1.473890 3.020528 2.906778 -5.129797 -6.209409 -115.878974 -75.897951 150.440479 -5.957269 -26.912855 -16.666973 -6.371675 -2.955062 1.929564 2.792227 -2.614510 10.625105 84.421552 -59.317210 -126.166607 1.029404 -7.403460 8.064523 1.931809 -63.565702 11.115590 169.508995 85.913933 168.248507 -11.129738 -22.823075 14.100904 0.033101 -0.135917 -0.135499 3.592152 -62.463577 -2.354288 122.351336 77.301763 121.080761 -5.455980 -20.233604 -2.026897 0.013196 0.051141 -0.006108
-8.714827 52.894535 15.593444 -179.760069 -14.650985 -2.349738 1.354378 13.883540 -0.099166 0.118003 1.162154 -0.033272 0.200679 1.995990 -0.029238 1.259584 12.523241 -0.067573 -0.344114 18.523751 4.604986 -1.469735 -6.059927 4.996174 0.302909 -1.538256 3.034864 2.961528 -5.153002 -6.163522 -115.747090 -75.944793 150.266293 -5.963158 -26.924957 -16.688488 -6.412269 -2.994819 1.910095 2.646879 -2.715480 10.420713 84.269404 -59.459197 -125.822062 1.012567 -7.331016 8.059685 1.927277 -63.601758 11.127968 169.809473 85.905122 168.572299 -11.454438 -22.789134 14.177152 0.023982 -0.113560 -0.094584 3.589744 -62.490544 -2.354216 122.410709 77.300006 121.136305 -5.455823 -20.264469 -2.016618 0.014528 0.056475 -0.007385
-8.718793 52.891177 15.583107 -179.763588 -14.598750 -2.347450 1.354449 13.839628 -0.094235 0.119488 1.165198 -0.024665 0.192810 1.992962 -0.004932 1.257710 12.497771 -0.073975 -0.338355 18.528744 4.578536 -1.443253 -6.037296 4.955625 0.319710 -1.603616 3.048962 3.026150 -5.172724 -6.133279 -115.624330 -75.979533 150.099984 -5.929408 -26.876269 -16.730575 -6.446035 -3.038241 1.892247 2.492133 -2.807136 10.224065 84.166642 -59.548700 -125.535616 0.963749 -7.226781 8.087938 1.950026 -63.658555 11.138706 170.367551 85.904183 169.181702 -11.921436 -22.745410 14.273614 0.007916 -0.083072 -0.059253 3.604824 -62.535245 -2.365869 122.495627 77.296122 121.215209 -5.452523 -20.298531 -2.005960 0.014603 0.061030 -0.007602
-8.723809 52.889323 15.564978 -179.771667 -14.589614 -2.338731 1.358320 13.839083 -0.093647 0.112303 1.174473 -0.004955 0.189385 1.979175 -0.010354 1.248607 12.468579 -0.037390 -0.334703 18.539972 4.522004 -1.414359 -6.033405 4.912888 0.351184 -1.650504 3.038413 3.088385 -5.192335 -6.119275 -115.475791 -76.043797 149.895729 -6.024966 -27.019566 -16.694585 -6.551819 -3.153444 1.908702 2.425760 -2.800076 9.993151 84.049581 -59.672516 -125.225572 0.945495 -7.162022 8.099114 1.993879 -63.670415 11.145883 171.194143 85.900611 170.074632 -12.422380 -22.706432 14.373330 -0.010291 -0.055951 -0.032348 3.627988 -62.531539 -2.381895 122.570230 77.277488 121.285248 -5.462382 -20.340953 -1.999545 0.014423 0.062739 -0.005775
-8.727408 52.885748 15.552825 -179.758982 -14.542382 -2.343949 1.321517 13.822564 -0.061203 0.129090 1.149542 -0.032134 0.177571 1.979054 0.004303 1.249244 12.455656 -0.042604 -0.330105 18.542889 4.502048 -1.383837 -6.055825 4.884878 0.373442 -1.702524 3.070213 3.141173 -5.213962 -6.118681 -115.362652 -76.036356 149.751759 -6.041840 -27.036151 -16.698630 -6.620937 -3.216267 1.935297 2.327442 -2.844671 9.817553 83.956757 -59.783332 -124.960266 0.920697 -6.994873 8.049598 1.992322 -63.717279 11.143331 171.482895 85.892283 170.388190 -12.602433 -22.687483 14.416076 -0.014711 -0.054354 -0.023818 3.615982 -62.576837 -2.384613 122.592088 77.272125 121.306671 -5.461939 -20.351914 -1.996307 0.018153 0.061149 -0.005631
